<svg width="84" height="54" viewBox="0 0 84 54" fill="none" xmlns="http://www.w3.org/2000/svg">
<g clip-path="url(#clip0_189_25)">
<path d="M57.1187 53.7952L51.232 46.8814L56.7076 40.2759L54.1648 40.2832L49.3593 46.2095V40.2759H47.2181V53.7941H49.3593L49.4002 47.8365L54.3966 53.7994L57.1187 53.7952ZM41.1217 42.7306C41.3262 42.9295 41.487 43.1686 41.5941 43.4327C41.7011 43.6967 41.752 43.98 41.7435 44.2647C41.747 44.5762 41.6863 44.8851 41.5653 45.1723C41.4443 45.4595 41.2655 45.719 41.0399 45.9346C40.8132 46.1634 40.5419 46.3435 40.2427 46.4639C39.9436 46.5843 39.6229 46.6424 39.3003 46.6348H38.0179V42.1224H39.2595C40.0868 42.1224 40.7075 42.3251 41.1217 42.7306ZM45.51 53.7941C44.755 52.5642 44.0962 51.4941 43.5334 50.5839C42.9714 49.6747 42.5188 48.9773 42.1755 48.4918C41.8326 48.0069 41.5716 47.7153 41.3933 47.6202C42.118 47.3413 42.7543 46.8736 43.2356 46.2659C43.72 45.6303 43.9706 44.8482 43.9455 44.0505C43.9641 43.5405 43.8716 43.0325 43.6745 42.5615C43.4774 42.0905 43.1803 41.6676 42.8036 41.3219C42.0413 40.6249 40.8575 40.2762 39.2521 40.2759H35.8768V53.7941H38.0179V48.3172H39.2731C39.5772 48.3998 40.819 50.2254 42.9986 53.7941H45.51ZM30.052 43.3837C30.8615 44.3065 31.2662 45.5406 31.2662 47.0862C31.2662 48.6454 30.851 49.8799 30.0205 50.7897C29.19 51.6989 28.089 52.1535 26.7175 52.1535C25.3313 52.1535 24.223 51.6989 23.3925 50.7897C22.562 49.8795 22.1472 48.645 22.1479 47.0862C22.1479 45.5135 22.5627 44.2723 23.3925 43.3628C24.223 42.4537 25.3313 41.9991 26.7175 41.9991C28.1299 41.9991 29.2414 42.4606 30.052 43.3837ZM20.3569 44.3577C20.0199 45.2491 19.8525 46.1953 19.863 47.1479C19.863 49.2954 20.5285 50.974 21.8595 52.1838C23.1826 53.392 24.9235 54.0429 26.7175 54C27.6489 54.0101 28.5739 53.8464 29.4448 53.5172C30.2743 53.1964 31.1697 52.5642 32.1313 51.6205C33.0907 50.6769 33.571 49.1588 33.572 47.0664C33.572 45.1247 33.1327 43.668 32.254 42.6961C31.3763 41.7253 30.5015 41.0586 29.6294 40.696C28.7046 40.3238 27.7147 40.1391 26.7175 40.1526C25.7792 40.1455 24.8488 40.3234 23.9797 40.6761C23.1605 41.0038 22.4177 41.4961 21.7976 42.1224C21.1689 42.7613 20.6785 43.5221 20.3569 44.3577ZM18.8543 40.2759L16.6376 40.278L13.9816 48.6266C13.7708 49.2964 13.5678 49.9593 13.3724 50.6152C13.1417 49.9307 12.9177 49.2469 12.7003 48.5639L9.81775 40.2759L7.61786 40.2748L8.55108 42.833L6.44661 48.729C6.33441 49.0717 6.20893 49.4274 6.07017 49.7959C5.93176 50.1659 5.82689 50.4595 5.7577 50.6779L5.14848 48.7133L2.3792 40.278L0 40.2759L4.81608 53.8767H6.52419L8.85097 47.5586C9.01559 47.1207 9.14246 46.7685 9.23159 46.5021C9.32072 46.2356 9.42767 45.9242 9.55035 45.5689C9.6594 45.9513 9.76811 46.3038 9.87646 46.6264C9.98446 46.9483 10.0928 47.2667 10.2015 47.5816L12.4801 53.8819L14.2437 53.8767L18.8543 40.2759Z" fill="#604E80"/>
<path d="M83.5579 13.5601V11.7135H78.4325V7.57005H82.8575V5.72353H78.4325V1.88729H82.8753L83.537 0.0418104H76.2914V13.5601H83.5579ZM74.5833 13.5601L68.6955 6.64627L74.1712 0.0418018L71.6284 0.0491163L66.8228 5.97537V0.0418018H64.6827V13.5601H66.8228L66.8637 7.60245L71.8601 13.5653L74.5833 13.5601ZM58.5915 8.30784L54.9362 8.3047L56.2753 4.67433C56.443 4.23752 56.558 3.92018 56.6202 3.72233C56.6831 3.52482 56.7565 3.29631 56.8404 3.0368C56.8869 3.30421 56.9528 3.5679 57.0376 3.82578C57.1267 4.10585 57.2274 4.39636 57.3375 4.69628L58.5915 8.30784ZM62.9735 13.5601L57.6017 0H56.0991L50.85 13.5601H52.9911L54.2578 10.1136H59.3067L60.6499 13.559L62.9735 13.5601ZM49.101 13.5601V0.0418018H47.0017L43.3579 5.74442C43.1168 6.12794 42.9689 6.37352 42.9154 6.48325C42.862 6.59193 42.7487 6.81138 42.5736 7.13951C42.3199 6.67218 42.0391 6.21997 41.7326 5.78518L37.8005 0.0418018H35.7422V13.5601H37.8823V4.27723C37.8823 4.07972 37.876 3.82265 37.8624 3.5081C37.9756 3.75958 38.1074 4.00234 38.2567 4.23437C38.3951 4.44547 38.5268 4.63949 38.652 4.81645L41.9906 9.6956L43.1367 9.71964L46.2017 4.88437C46.2971 4.73389 46.4268 4.52524 46.5907 4.25841C46.7413 4.01598 46.8786 3.7655 47.0017 3.50809V13.5601H49.101Z" fill="#604E80"/>
<mask id="mask0_189_25" style="mask-type:luminance" maskUnits="userSpaceOnUse" x="35" y="24" width="7" height="13">
<path d="M41.0971 24.2953H35.8323V36.4477H41.0971V24.2953Z" fill="white"/>
</mask>
<g mask="url(#mask0_189_25)">
<path d="M41.0971 24.2953H35.8323V36.4477H41.0971V24.2953Z" fill="url(#paint0_linear_189_25)"/>
</g>
<path d="M43.4837 17.6197H35.8323V22.8667H43.4837V17.6197Z" fill="#604E80"/>
<mask id="mask1_189_25" style="mask-type:luminance" maskUnits="userSpaceOnUse" x="43" y="17" width="6" height="20">
<path d="M48.7475 17.6197H43.4827V36.4477H48.7475V17.6197Z" fill="white"/>
</mask>
<g mask="url(#mask1_189_25)">
<path d="M48.7475 17.6197H43.4827V36.4477H48.7475V17.6197Z" fill="url(#paint1_linear_189_25)"/>
</g>
<path d="M55.1114 17.6197H41.0962V22.8667H55.1114V17.6197Z" fill="#3C9FD9"/>
</g>
<defs>
<linearGradient id="paint0_linear_189_25" x1="38.4647" y1="27.5349" x2="38.4647" y2="24.9663" gradientUnits="userSpaceOnUse">
<stop stop-color="#3C9FD9"/>
<stop offset="1" stop-color="#307DA8"/>
</linearGradient>
<linearGradient id="paint1_linear_189_25" x1="46.1157" y1="26.1293" x2="46.1157" y2="22.1116" gradientUnits="userSpaceOnUse">
<stop stop-color="#604E80"/>
<stop offset="1" stop-color="#4C3D64"/>
</linearGradient>
<clipPath id="clip0_189_25">
<rect width="83.5579" height="54" fill="white"/>
</clipPath>
</defs>
</svg>
