<svg xmlns="http://www.w3.org/2000/svg" xmlns:xlink="http://www.w3.org/1999/xlink" width="136.07185mm" height="88.23695mm" viewBox="0 0 385.71549 250.12048">
  <defs>
    <clipPath id="clip-path">
      <rect x="165.40719" y="112.53221" width="24.30337" height="56.28837" style="fill: none"/>
    </clipPath>
    <linearGradient id="linear-gradient" x1="108.35576" y1="621.30607" x2="113.1961" y2="621.30607" gradientTransform="matrix(0, -2.4579, -2.4579, 0, 1704.66695, 393.86511)" gradientUnits="userSpaceOnUse">
      <stop offset="0" stop-color="#3c9fd9"/>
      <stop offset="1" stop-color="#307da8"/>
    </linearGradient>
    <clipPath id="clip-path-2">
      <rect x="200.72236" y="81.61208" width="24.30337" height="87.2085" style="fill: none"/>
    </clipPath>
    <linearGradient id="linear-gradient-2" x1="24.98689" y1="653.42665" x2="29.82723" y2="653.42665" gradientTransform="matrix(0, -3.8446, -3.8446, 0, 2725.04089, 217.09183)" gradientUnits="userSpaceOnUse">
      <stop offset="0" stop-color="#604e80"/>
      <stop offset="1" stop-color="#4c3d64"/>
    </linearGradient>
  </defs>
  <title>Make IT Work</title>
  <g id="Layer_2" data-name="Layer 2">
    <g id="Layer_1-2" data-name="Layer 1">
      <g>
        <g>
          <path d="M263.66814,249.17177l-27.17371-32.02372,25.27628-30.59583-11.73783.03389-22.1833,27.44959V186.55222h-9.884v62.61471h9.884l.18878-27.59481,23.06424,27.619Zm-73.84431-51.24958a9.53522,9.53522,0,0,1,2.87032,7.10563,10.55789,10.55789,0,0,1-3.24786,7.73487,10.92043,10.92043,0,0,1-8.03014,3.243h-5.91976V195.10511h5.731q5.72856,0,8.59646,2.81708m20.25683,51.24474q-5.22754-8.54564-9.124-14.86954-3.89163-6.31665-6.26826-9.69037c-1.58279-2.24592-2.788-3.59638-3.61089-4.03685a20.02694,20.02694,0,0,0,8.50449-6.27309,16.13027,16.13027,0,0,0,3.27692-10.26153,16.37454,16.37454,0,0,0-5.27114-12.63814q-5.27839-4.84277-16.39425-4.84519H165.61241v62.61471h9.884V223.79868h5.79391q2.10555.57359,17.19773,25.36825ZM138.7243,200.94741q5.60513,6.411,5.60512,17.14934,0,10.8327-5.75033,17.15419-5.75033,6.31665-15.24709,6.31665-9.59839,0-15.34874-6.31665-5.75033-6.32393-5.74549-17.15419,0-10.92708,5.74549-17.24615Q113.7336,194.534,123.332,194.534q9.77991,0,15.3923,6.41346m-44.75384,4.5112a35.54289,35.54289,0,0,0-2.27979,12.92372q0,14.92037,9.216,23.32563a32.0566,32.0566,0,0,0,22.42532,8.41252,34.44881,34.44881,0,0,0,12.58974-2.23624q5.74307-2.229,12.401-8.78523,6.64338-6.55624,6.65064-21.09422,0-13.49-6.08432-20.24233-6.077-6.745-12.11538-9.26442a34.64236,34.64236,0,0,0-13.44164-2.517,32.85356,32.85356,0,0,0-12.63815,2.425,29.68247,29.68247,0,0,0-10.07275,6.699,30.26054,30.26054,0,0,0-6.65064,10.3535m-6.93621-18.90639-10.23249.00969L64.54117,225.23142q-1.45936,4.654-2.81224,9.21118-1.59732-4.75565-3.10267-9.5016l-13.3061-38.38878-10.155-.00484,4.3079,11.84917-9.71457,27.30922q-.77688,2.38146-1.73769,4.942c-.63892,1.71348-1.123,3.07362-1.44242,4.08525l-2.81224-9.09985L10.98275,186.56191,0,186.55222l22.23171,62.9971h7.88492l10.74073-29.26473q1.13989-3.04215,1.757-4.89359c.41143-1.23429.90515-2.67671,1.47147-4.32243q.7551,2.65735,1.50535,4.89843.74782,2.23624,1.5005,4.42408l10.51807,29.18244,8.14146-.0242Z" style="fill: #604e80"/>
          <path d="M385.71549,62.80831V54.25543H362.05588v-19.192h20.42626V26.51058H362.05588V8.74166h20.50854l3.05428-8.548H352.1719V62.80831Zm-41.42851,0L317.10845,30.7846,342.38474.19362,330.64689.2275,308.46358,27.67709V.19362h-9.87914V62.80831h9.87914l.18878-27.59481,23.06425,27.619Zm-73.8201-24.32756-16.87344-.01453,6.18112-16.81536q1.16168-3.03489,1.59246-4.40955.43564-1.37223,1.01647-3.17528a25.94358,25.94358,0,0,0,.91,3.65447c.41144,1.29722.87612,2.64284,1.38435,4.032Zm20.22781,24.32756L265.89759,0h-6.93621L234.73061,62.80831h9.884l5.84713-15.96344H273.768l6.20049,15.9586Zm-64.03777,0V.19362h-9.69038l-16.8202,26.41375c-1.11327,1.77641-1.79578,2.91389-2.04263,3.42213-.24685.50339-.76961,1.51986-1.578,3.03974a63.36591,63.36591,0,0,0-3.88195-6.27309L174.49252.19362h-9.50161V62.80831h9.87915V19.81153c0-.91483-.029-2.10554-.092-3.5625a25.79907,25.79907,0,0,0,1.82,3.364q.95839,1.46663,1.82483,2.69609l15.41165,22.59956,5.29049.11133,14.14833-22.39628q.66071-1.04551,1.79578-2.89936a36.14086,36.14086,0,0,0,1.89741-3.47538V62.80831Z" style="fill: #604e80"/>
        </g>
        <g style="clip-path: url(#clip-path)">
          <rect x="165.40719" y="112.53222" width="24.30336" height="56.28837" style="fill: url(#linear-gradient)"/>
        </g>
        <rect x="165.40719" y="81.61208" width="35.32" height="24.30337" style="fill: #604e80"/>
        <g style="clip-path: url(#clip-path-2)">
          <rect x="200.72234" y="81.61208" width="24.30337" height="87.2085" style="fill: url(#linear-gradient-2)"/>
        </g>
        <rect x="189.70573" y="81.61208" width="64.69606" height="24.30337" style="fill: #3c9fd9"/>
      </g>
    </g>
  </g>
</svg>
